HIERARCHY
ROOT SpineBase
{
  OFFSET 0.000000 0.000000 0.000000
  CHANNELS 6 Xposition Yposition Zposition Zrotation Xrotation Yrotation
  JOINT SpineMid
  {
    OFFSET -0.000000 25.362247 0.000000
    CHANNELS 3 Zrotation Xrotation Yrotation
    JOINT SpineShoulder
    {
      OFFSET -0.040701 18.927298 -0.573015
      CHANNELS 3 Zrotation Xrotation Yrotation
      JOINT Neck
      {
        OFFSET -0.050555 6.274107 -0.450228
        CHANNELS 3 Zrotation Xrotation Yrotation
        JOINT Head
        {
          OFFSET -1.844874 10.389028 1.120649
          CHANNELS 3 Zrotation Xrotation Yrotation
          End Site
          {
            OFFSET 0 0 0
          }
        }
      }
      JOINT ShoulderLeft
      {
        OFFSET -13.767523 -3.664905 2.359299
        CHANNELS 3 Zrotation Xrotation Yrotation
        JOINT ElbowLeft
        {
          OFFSET -0.363539 -15.402173 4.775332
          CHANNELS 3 Zrotation Xrotation Yrotation
          JOINT WristLeft
          {
            OFFSET 7.909289 0.522971 -16.790585
            CHANNELS 3 Zrotation Xrotation Yrotation
            JOINT HandLeft
            {
              OFFSET 4.207527 2.968977 -14.965721
              CHANNELS 3 Zrotation Xrotation Yrotation
              JOINT HandTipLeft
              {
                OFFSET 2.838376 0.373465 -2.555845
                CHANNELS 3 Zrotation Xrotation Yrotation
                End Site
                {
                  OFFSET 0 0 0
                }
              }
              JOINT ThumbLeft
              {
                OFFSET 3.391825 -0.891391 -1.052049
                CHANNELS 3 Zrotation Xrotation Yrotation
                End Site
                {
                  OFFSET 0 0 0
                }
              }
            }
          }
        }
      }
      JOINT ShoulderRight
      {
        OFFSET 12.492455 -2.471127 -5.296371
        CHANNELS 3 Zrotation Xrotation Yrotation
        JOINT ElbowRight
        {
          OFFSET 5.122623 -18.034784 -1.151711
          CHANNELS 3 Zrotation Xrotation Yrotation
          JOINT WristRight
          {
            OFFSET -17.742262 3.982074 -15.395723
            CHANNELS 3 Zrotation Xrotation Yrotation
            JOINT HandRight
            {
              OFFSET -8.060878 0.670958 -0.286812
              CHANNELS 3 Zrotation Xrotation Yrotation
              JOINT HandTipRight
              {
                OFFSET -5.829920 0.151749 0.070405
                CHANNELS 3 Zrotation Xrotation Yrotation
                End Site
                {
                  OFFSET 0 0 0
                }
              }
              JOINT ThumbRight
              {
                OFFSET -1.631170 -1.357059 0.821673
                CHANNELS 3 Zrotation Xrotation Yrotation
                End Site
                {
                  OFFSET 0 0 0
                }
              }
            }
          }
        }
      }
    }
  }
  JOINT HipLeft
  {
    OFFSET -5.524593 0.098086 -1.498937
    CHANNELS 3 Zrotation Xrotation Yrotation
    JOINT KneeLeft
    {
      OFFSET 2.398636 -36.576711 4.019787
      CHANNELS 3 Zrotation Xrotation Yrotation
      JOINT AnkleLeft
      {
        OFFSET 4.616883 -32.559457 6.193198
        CHANNELS 3 Zrotation Xrotation Yrotation
        JOINT FootLeft
        {
          OFFSET -3.837679 -2.668603 -12.258191
          CHANNELS 3 Zrotation Xrotation Yrotation
          End Site
          {
            OFFSET 0 0 0
          }
        }
      }
    }
  }
  JOINT HipRight
  {
    OFFSET 5.233784 1.205904 -4.428250
    CHANNELS 3 Zrotation Xrotation Yrotation
    JOINT KneeRight
    {
      OFFSET 4.738586 -34.851325 0.979494
      CHANNELS 3 Zrotation Xrotation Yrotation
      JOINT AnkleRight
      {
        OFFSET 1.411984 -33.980699 7.010506
        CHANNELS 3 Zrotation Xrotation Yrotation
        JOINT FootRight
        {
          OFFSET -2.554670 -3.019676 -11.142986
          CHANNELS 3 Zrotation Xrotation Yrotation
          End Site
          {
            OFFSET 0 0 0
          }
        }
      }
    }
  }
}
MOTION
Frames: 7
Frame Time: 0.033333
22.765534 75.187511 373.498909 0.798668 -3.429028 23.373124 -0.056080 -0.545883 -23.330145 -0.111198 -0.070770 0.012344 -10.678841 -1.613863 0.276303 0.000000 0.000000 0.000000 -0.735724 20.347417 -0.393405 1.946923 -3.181299 43.527905 -6.022500 -19.800798 11.119183 -36.006037 1.427497 -8.400952 0.000000 0.000000 0.000000 0.000000 0.000000 0.000000 -50.768384 44.740326 41.504854 -20.890905 2.172813 -3.538300 -18.952517 -27.925412 -36.698929 6.297957 -2.250958 -4.610894 0.000000 0.000000 0.000000 0.000000 0.000000 0.000000 -1.323627 6.082854 -23.409217 1.768539 -2.848362 -0.172562 7.830013 -31.684144 -43.243659 0.000000 0.000000 0.000000 -1.203967 2.779237 -23.492308 0.757894 1.920856 0.116402 0.692570 -5.177388 4.530596 0.000000 0.000000 0.000000
22.743740 74.916668 373.484352 0.928004 -3.431989 21.806957 0.006398 -0.514498 -21.755574 -0.117116 0.003952 0.019050 -13.484064 -4.620041 -0.253447 0.000000 0.000000 0.000000 -1.127672 22.969613 -0.495315 2.280478 -6.868283 42.430255 -15.795312 -24.641881 -8.267625 -27.760147 -3.030145 6.229626 0.000000 0.000000 0.000000 0.000000 0.000000 0.000000 -62.020157 47.404917 52.373585 -21.867672 0.139769 -5.623894 -14.185527 -30.199674 -43.903761 3.161974 -3.522855 -0.378524 0.000000 0.000000 0.000000 0.000000 0.000000 0.000000 -1.623300 5.790875 -21.837698 1.596553 -2.617909 -0.192336 7.661399 -36.365768 -42.675489 0.000000 0.000000 0.000000 -1.267625 3.005534 -21.885550 0.762164 1.666995 0.090665 0.814521 -6.827359 5.835415 0.000000 0.000000 0.000000
22.713380 74.593379 373.490759 1.023758 -3.395027 19.941988 0.073532 -0.452360 -19.884862 -0.129442 0.079344 0.024039 -16.317668 -7.232707 -0.807145 0.000000 0.000000 0.000000 -1.357802 26.290509 -0.601828 2.496914 -11.719729 41.300525 -11.045005 -18.552356 -10.060625 -33.784507 -10.864661 3.495914 0.000000 0.000000 0.000000 0.000000 0.000000 0.000000 -71.691290 48.358968 61.685412 -22.468116 -1.250060 -7.748038 -8.812906 -34.144352 -48.594691 -0.090211 -3.145846 0.021806 0.000000 0.000000 0.000000 0.000000 0.000000 0.000000 -1.926044 5.401447 -19.973168 1.528332 -2.293189 -0.176213 8.633579 -33.450194 -35.950938 0.000000 0.000000 0.000000 -1.286229 3.240608 -19.973176 1.286874 0.787860 0.134265 -0.184779 -4.436939 5.157513 0.000000 0.000000 0.000000
22.674175 74.220691 373.510866 1.078168 -3.293965 17.825439 0.179362 -0.359490 -17.765859 -0.107720 0.153565 0.030265 -18.973981 -9.226377 -1.306357 0.000000 0.000000 0.000000 -1.697874 29.618676 -0.712778 2.774405 -17.040593 40.431485 -9.513864 -16.406466 -11.493650 -29.192080 -11.936329 7.714140 0.000000 0.000000 0.000000 0.000000 0.000000 0.000000 -77.748664 48.312277 67.310649 -23.299877 -1.635888 -8.552144 -4.964669 -37.826357 -51.436062 -1.412341 -2.850474 -0.022913 0.000000 0.000000 0.000000 0.000000 0.000000 0.000000 -2.186320 4.882235 -17.864935 1.393782 -1.960065 -0.172136 9.477501 -31.972160 -28.009832 0.000000 0.000000 0.000000 -1.254245 3.468111 -17.803119 1.174667 0.375486 0.080115 -0.673843 0.637640 1.902190 0.000000 0.000000 0.000000
22.638643 73.953081 373.542817 1.032617 -3.203569 16.357131 0.197967 -0.272306 -16.301435 -0.135584 0.175448 0.027563 -20.144989 -10.294220 -1.618716 0.000000 0.000000 0.000000 -2.406330 30.625555 -0.748725 3.555343 -19.936460 40.135753 -10.484991 -17.602639 -11.905713 -24.324535 -7.258375 8.227754 0.000000 0.000000 0.000000 0.000000 0.000000 0.000000 -81.325802 47.974590 70.667426 -23.780891 -2.169450 -8.679542 -6.304401 -38.954236 -51.316023 2.282865 -1.617667 -3.576401 0.000000 0.000000 0.000000 0.000000 0.000000 0.000000 -2.255496 4.492675 -16.409006 1.231374 -1.767692 -0.186182 9.573239 -26.973459 -20.237620 0.000000 0.000000 0.000000 -1.114628 3.631957 -16.296967 1.057286 0.031078 0.033613 -1.024302 1.946140 2.009342 0.000000 0.000000 0.000000
22.627999 73.768683 373.578029 1.004083 -3.108741 15.676115 0.183869 -0.159823 -15.623564 -0.155488 0.194757 0.024648 -20.787613 -10.823361 -1.779834 0.000000 0.000000 0.000000 -2.678249 32.276528 -0.782201 3.933687 -23.253521 40.130168 -12.701552 -19.926276 -12.961057 -20.289126 -2.452234 9.373617 0.000000 0.000000 0.000000 0.000000 0.000000 0.000000 -77.990493 48.231664 67.596186 -24.544707 -1.516791 -7.300758 -11.660330 -37.607184 -47.416865 9.856063 -1.104840 -9.325547 0.000000 0.000000 0.000000 0.000000 0.000000 0.000000 -2.340964 4.321154 -15.736385 1.225899 -1.736907 -0.189272 9.423058 -24.649642 -15.052552 0.000000 0.000000 0.000000 -1.026176 3.702730 -15.593650 0.365332 0.370795 -0.098831 -0.159653 -3.805445 6.331914 0.000000 0.000000 0.000000
22.644996 73.636666 373.612074 1.103468 -2.920912 15.517909 0.275395 0.053289 -15.462555 -0.117156 0.275446 0.033254 -22.159512 -11.491704 -2.011198 0.000000 0.000000 0.000000 -2.985221 32.708121 -0.830209 4.067541 -25.312627 40.371070 -20.467806 -26.573167 -17.278177 -11.428957 7.370783 15.475878 0.000000 0.000000 0.000000 0.000000 0.000000 0.000000 -72.985070 47.680603 61.945423 -25.164976 1.068155 -5.431359 -13.277800 -38.603199 -44.582203 5.916319 0.373053 -11.695010 0.000000 0.000000 0.000000 0.000000 0.000000 0.000000 -2.547590 4.149494 -15.582683 1.194844 -1.669864 -0.191786 9.397053 -23.936985 -13.335816 0.000000 0.000000 0.000000 -1.131765 3.640704 -15.420135 0.307914 0.266662 -0.121113 1.434966 -12.732082 12.782002 0.000000 0.000000 0.000000
